<svg width="1448" height="906" viewBox="0 0 1448 906" fill="none" xmlns="http://www.w3.org/2000/svg">
<rect width="1448" height="906" fill="#1E1F21"/>
<rect x="-15.5" y="-1855.5" width="1479" height="2773" rx="4.5" stroke="#9747FF" stroke-dasharray="10 5"/>
<g clip-path="url(#clip0_0_1)" filter="url(#filter0_d_0_1)">
<rect width="1440" height="898" transform="translate(4)" fill="#13141A"/>
<g filter="url(#filter1_f_0_1)">
<path fill-rule="evenodd" clip-rule="evenodd" d="M1266.09 434.01C1327.07 434.87 1366.87 497.735 1410.96 544.18C1456.74 592.398 1514.47 634.62 1522.3 703.881C1530.83 779.271 1507.21 863.286 1452.21 909.057C1400.7 951.923 1330.43 922.802 1266.09 917.078C1210.09 912.095 1149.19 920.276 1107.78 878.412C1065.17 835.342 1053.35 767.579 1055.18 703.881C1056.94 642.351 1081.02 586.677 1117.47 540.04C1157.52 488.807 1204.76 433.145 1266.09 434.01Z" fill="#40FFDC"/>
</g>
<g filter="url(#filter2_f_0_1)">
<path fill-rule="evenodd" clip-rule="evenodd" d="M1294.01 273.993C1280.88 355.099 1398.27 449.737 1342 509.606C1289.16 565.832 1199.61 459.933 1122.53 456.44C1058.77 453.55 991.755 527.296 939.009 491.344C885.844 455.106 908.55 370.656 902.679 306.583C898.539 261.402 904.808 219.081 909.931 174.001C916.137 119.377 907.48 62.3291 935.787 15.2011C971.915 -44.9484 1018.45 -113.729 1088.06 -122.565C1157.86 -131.426 1213.67 -68.6453 1270.61 -27.3045C1323.88 11.3785 1401.75 43.2905 1406.85 108.927C1412.14 177.044 1304.92 206.548 1294.01 273.993Z" fill="#240047"/>
</g>
<g filter="url(#filter3_f_0_1)">
<path fill-rule="evenodd" clip-rule="evenodd" d="M75.3812 477.008C93.935 422.52 91.0925 342.909 145.384 323.786C200.622 304.33 241.797 390.692 299.913 397.923C370.906 406.757 449.1 327.14 507.249 368.814C561.514 407.704 520.714 496.757 530.06 562.861C540.222 634.73 598.496 708.463 564.327 772.501C530.247 836.372 443.8 857.986 371.438 860.147C310.326 861.972 270.698 790.02 209.953 783.085C134.265 774.442 40.2001 873.426 -10.4688 816.54C-60.7796 760.056 31.5566 676.949 50.0988 603.616C60.913 560.846 61.1612 518.769 75.3812 477.008Z" fill="#40FFDC"/>
</g>
<g filter="url(#filter4_f_0_1)">
<path fill-rule="evenodd" clip-rule="evenodd" d="M1249.43 548.592C1222.46 617.596 1131.98 644.562 1058.15 650.687C990.661 656.285 935.403 606.273 873.066 579.814C815.12 555.219 747.702 548.856 706.373 501.374C662.357 450.804 635.961 382.3 643.127 315.641C650.08 250.961 694.232 196.23 743.716 154.003C786.707 117.317 848.326 122.12 899.069 97.2347C966.907 63.9652 1015.08 -29.5758 1089.31 -15.4824C1161.19 -1.83511 1196.98 86.624 1215.71 157.352C1231.45 216.798 1176.59 272.844 1181.87 334.112C1188.47 410.664 1277.4 477.027 1249.43 548.592Z" fill="#00A9D4"/>
</g>
<g filter="url(#filter5_f_0_1)">
<path fill-rule="evenodd" clip-rule="evenodd" d="M1249.43 548.592C1222.46 617.596 1131.98 644.562 1058.15 650.687C990.661 656.285 935.403 606.273 873.066 579.814C815.12 555.219 747.702 548.856 706.373 501.374C662.357 450.804 635.961 382.3 643.127 315.641C650.08 250.961 694.232 196.23 743.716 154.003C786.707 117.317 848.326 122.12 899.069 97.2347C966.907 63.9652 1015.08 -29.5758 1089.31 -15.4824C1161.19 -1.83511 1196.98 86.624 1215.71 157.352C1231.45 216.798 1176.59 272.844 1181.87 334.112C1188.47 410.664 1277.4 477.027 1249.43 548.592Z" fill="#00A9D4"/>
</g>
<g filter="url(#filter6_f_0_1)">
<path fill-rule="evenodd" clip-rule="evenodd" d="M553.499 647.996C486.887 615.566 467.285 523.212 467.117 449.126C466.964 381.406 521.258 330.348 552.644 270.341C581.819 214.561 593.583 147.873 644.235 110.496C698.181 70.6891 768.586 49.8874 834.453 62.3906C898.364 74.5226 949.367 122.933 987.478 175.653C1020.59 221.455 1010.85 282.488 1031.57 335.067C1059.28 405.361 1148.64 460.897 1128.62 533.754C1109.24 604.305 1018.19 632.869 946.184 645.848C885.665 656.757 834.211 597.571 772.717 597.908C695.882 598.328 622.583 681.63 553.499 647.996Z" fill="#00A9D4"/>
</g>
<g filter="url(#filter7_f_0_1)">
<path fill-rule="evenodd" clip-rule="evenodd" d="M234.876 73.524C257.176 46.5552 289.426 29.6851 307.96 0.00215118C339.442 -50.4146 322.405 -149.535 380.865 -160.276C439.041 -170.964 450.384 -59.9781 504.504 -36.1072C547.984 -16.9291 614.735 -80.3148 645.076 -43.7389C678.323 -3.65878 607.48 60.2046 625.058 109.223C641.195 154.223 715.577 156.49 732.861 201.062C749.259 243.349 737.304 296.074 712.149 333.814C687.062 371.452 630.427 372.343 597.81 403.681C558.425 441.522 557.32 540.299 502.981 534.78C438.525 528.232 443.464 413.134 386.528 382.22C346.755 360.625 287.658 429.111 253.559 399.355C219.581 369.703 269.4 307.797 253.073 265.759C237.423 225.46 169.489 215.431 165.414 172.393C161.57 131.786 208.884 104.958 234.876 73.524Z" fill="#240047"/>
</g>
<g filter="url(#filter8_f_0_1)">
<path fill-rule="evenodd" clip-rule="evenodd" d="M848.348 471.305C876.435 477.976 901.169 498.227 929.731 500.289C978.243 503.79 1042.72 441.327 1073.32 487.544C1103.76 533.536 1028.54 596.682 1032.59 655.669C1035.84 703.061 1107.47 731.336 1093.1 775.519C1077.34 823.934 1003.77 792.293 975.464 831.224C949.481 866.964 976.971 933.403 951.743 969.945C927.81 1004.61 885.284 1019.37 848.348 1015.36C811.511 1011.35 788.701 962.018 753.438 948.376C710.858 931.904 639.524 978.263 622.214 927.877C601.682 868.109 686.233 817.298 686.134 752.461C686.065 707.17 613.772 688.062 621.783 643.845C629.765 599.784 693.703 613.892 717.487 579.405C740.286 546.345 720.891 481.853 750.189 457.651C777.831 434.816 815.61 463.531 848.348 471.305Z" fill="#240047"/>
</g>
</g>
<g filter="url(#filter9_f_0_1)">
<path fill-rule="evenodd" clip-rule="evenodd" d="M873.656 177.828C941.771 201.171 950.307 293.51 992.098 352.161C1017.04 387.16 1044.98 416.057 1068.86 451.785C1103.88 504.181 1173.11 547.267 1164.22 609.664C1155.52 670.72 1087.21 708.377 1029.28 729.494C979.122 747.78 926.631 708.947 873.656 715.586C807.459 723.881 751.573 788.615 686.857 772.406C615.174 754.453 539.086 701.041 525.489 628.386C511.801 555.243 596.266 503.172 623.512 433.929C648.179 371.239 629.641 292.267 676.709 244.078C726.326 193.28 806.489 154.81 873.656 177.828Z" fill="#240047"/>
</g>
<g filter="url(#filter10_f_0_1)">
<path fill-rule="evenodd" clip-rule="evenodd" d="M499.656 62.8276C567.771 86.1707 576.307 178.51 618.098 237.161C643.035 272.16 670.977 301.057 694.858 336.785C729.881 389.181 799.111 432.267 790.219 494.664C781.518 555.72 713.213 593.377 655.285 614.494C605.122 632.78 552.631 593.947 499.656 600.586C433.459 608.881 377.573 673.615 312.857 657.406C241.174 639.453 165.086 586.041 151.489 513.386C137.801 440.243 222.266 388.172 249.512 318.929C274.179 256.239 255.641 177.267 302.709 129.078C352.326 78.2798 432.489 39.8098 499.656 62.8276Z" fill="#240047"/>
</g>
<defs>
<filter id="filter0_d_0_1" x="0" y="0" width="1448" height="906" filterUnits="userSpaceOnUse" color-interpolation-filters="sRGB">
<feFlood flood-opacity="0" result="BackgroundImageFix"/>
<feColorMatrix in="SourceAlpha" type="matrix" values="0 0 0 0 0 0 0 0 0 0 0 0 0 0 0 0 0 0 127 0" result="hardAlpha"/>
<feOffset dy="4"/>
<feGaussianBlur stdDeviation="2"/>
<feComposite in2="hardAlpha" operator="out"/>
<feColorMatrix type="matrix" values="0 0 0 0 0 0 0 0 0 0 0 0 0 0 0 0 0 0 0.25 0"/>
<feBlend mode="normal" in2="BackgroundImageFix" result="effect1_dropShadow_0_1"/>
<feBlend mode="normal" in="SourceGraphic" in2="effect1_dropShadow_0_1" result="shape"/>
</filter>
<filter id="filter1_f_0_1" x="555" y="-66" width="1469" height="1498.05" filterUnits="userSpaceOnUse" color-interpolation-filters="sRGB">
<feFlood flood-opacity="0" result="BackgroundImageFix"/>
<feBlend mode="normal" in="SourceGraphic" in2="BackgroundImageFix" result="shape"/>
<feGaussianBlur stdDeviation="250" result="effect1_foregroundBlur_0_1"/>
</filter>
<filter id="filter2_f_0_1" x="401.333" y="-623.411" width="1505.71" height="1649.44" filterUnits="userSpaceOnUse" color-interpolation-filters="sRGB">
<feFlood flood-opacity="0" result="BackgroundImageFix"/>
<feBlend mode="normal" in="SourceGraphic" in2="BackgroundImageFix" result="shape"/>
<feGaussianBlur stdDeviation="250" result="effect1_foregroundBlur_0_1"/>
</filter>
<filter id="filter3_f_0_1" x="-525.297" y="-179.061" width="1600.25" height="1539.24" filterUnits="userSpaceOnUse" color-interpolation-filters="sRGB">
<feFlood flood-opacity="0" result="BackgroundImageFix"/>
<feBlend mode="normal" in="SourceGraphic" in2="BackgroundImageFix" result="shape"/>
<feGaussianBlur stdDeviation="250" result="effect1_foregroundBlur_0_1"/>
</filter>
<filter id="filter4_f_0_1" x="141.959" y="-516.917" width="1612.9" height="1668.04" filterUnits="userSpaceOnUse" color-interpolation-filters="sRGB">
<feFlood flood-opacity="0" result="BackgroundImageFix"/>
<feBlend mode="normal" in="SourceGraphic" in2="BackgroundImageFix" result="shape"/>
<feGaussianBlur stdDeviation="250" result="effect1_foregroundBlur_0_1"/>
</filter>
<filter id="filter5_f_0_1" x="141.959" y="-516.917" width="1612.9" height="1668.04" filterUnits="userSpaceOnUse" color-interpolation-filters="sRGB">
<feFlood flood-opacity="0" result="BackgroundImageFix"/>
<feBlend mode="normal" in="SourceGraphic" in2="BackgroundImageFix" result="shape"/>
<feGaussianBlur stdDeviation="250" result="effect1_foregroundBlur_0_1"/>
</filter>
<filter id="filter6_f_0_1" x="-32.8831" y="-441.23" width="1664.4" height="1597.22" filterUnits="userSpaceOnUse" color-interpolation-filters="sRGB">
<feFlood flood-opacity="0" result="BackgroundImageFix"/>
<feBlend mode="normal" in="SourceGraphic" in2="BackgroundImageFix" result="shape"/>
<feGaussianBlur stdDeviation="250" result="effect1_foregroundBlur_0_1"/>
</filter>
<filter id="filter7_f_0_1" x="-334.806" y="-660.999" width="1575.2" height="1696" filterUnits="userSpaceOnUse" color-interpolation-filters="sRGB">
<feFlood flood-opacity="0" result="BackgroundImageFix"/>
<feBlend mode="normal" in="SourceGraphic" in2="BackgroundImageFix" result="shape"/>
<feGaussianBlur stdDeviation="250" result="effect1_foregroundBlur_0_1"/>
</filter>
<filter id="filter8_f_0_1" x="119" y="-51" width="1476" height="1567" filterUnits="userSpaceOnUse" color-interpolation-filters="sRGB">
<feFlood flood-opacity="0" result="BackgroundImageFix"/>
<feBlend mode="normal" in="SourceGraphic" in2="BackgroundImageFix" result="shape"/>
<feGaussianBlur stdDeviation="250" result="effect1_foregroundBlur_0_1"/>
</filter>
<filter id="filter9_f_0_1" x="24" y="-329" width="1641" height="1604" filterUnits="userSpaceOnUse" color-interpolation-filters="sRGB">
<feFlood flood-opacity="0" result="BackgroundImageFix"/>
<feBlend mode="normal" in="SourceGraphic" in2="BackgroundImageFix" result="shape"/>
<feGaussianBlur stdDeviation="250" result="effect1_foregroundBlur_0_1"/>
</filter>
<filter id="filter10_f_0_1" x="-350" y="-444" width="1641" height="1604" filterUnits="userSpaceOnUse" color-interpolation-filters="sRGB">
<feFlood flood-opacity="0" result="BackgroundImageFix"/>
<feBlend mode="normal" in="SourceGraphic" in2="BackgroundImageFix" result="shape"/>
<feGaussianBlur stdDeviation="250" result="effect1_foregroundBlur_0_1"/>
</filter>
<clipPath id="clip0_0_1">
<rect width="1440" height="898" fill="white" transform="translate(4)"/>
</clipPath>
</defs>
</svg>
